<?xml version="1.0" standalone="no"?>
<!DOCTYPE svg PUBLIC "-//W3C//DTD SVG 20010904//EN"
 "http://www.w3.org/TR/2001/REC-SVG-20010904/DTD/svg10.dtd">
<svg version="1.0" xmlns="http://www.w3.org/2000/svg"
 width="289.000000pt" height="291.000000pt" viewBox="0 0 289.000000 291.000000"
 preserveAspectRatio="xMidYMid meet">

<g transform="translate(0.000000,291.000000) scale(0.100000,-0.100000)"
fill="#000000" stroke="none">
<path d="M5 1455 l0 -1455 1443 0 1442 0 0 1455 0 1455 -1442 0 -1443 0 0
-1455z m1238 -775 c19 -16 40 -44 47 -61 11 -27 11 -34 -7 -57 -11 -15 -38
-37 -61 -50 -34 -19 -42 -29 -42 -52 0 -31 -24 -58 -35 -40 -7 11 4 269 12
283 10 17 55 5 86 -23z m823 -21 c-4 -22 -18 -63 -31 -89 -14 -27 -25 -56 -25
-65 0 -23 47 -19 60 5 16 30 50 25 63 -9 l10 -28 54 43 c76 62 123 57 123 -12
0 -39 -14 -51 -70 -60 -35 -6 -45 -4 -57 11 -10 15 -16 16 -25 7 -15 -15 -43
-15 -67 0 -15 9 -25 9 -46 0 -32 -15 -68 -15 -81 -2 -7 7 -24 6 -53 -5 -55
-19 -80 -19 -102 1 -17 15 -19 14 -30 -30 -13 -52 -29 -69 -61 -64 -19 2 -23
10 -26 46 -3 42 -17 53 -39 31 -16 -16 -43 -3 -43 21 0 25 -1 25 -47 0 -43
-23 -78 -26 -70 -7 12 33 18 57 13 57 -2 0 -28 -14 -56 -32 -64 -40 -125 -44
-147 -10 -15 21 -14 24 21 57 54 51 107 47 118 -10 3 -17 6 -16 23 13 11 17
26 32 35 32 23 0 48 -22 52 -44 5 -33 25 -29 48 10 l23 37 -22 16 c-23 18 -19
31 9 31 10 0 29 10 44 21 42 33 51 13 28 -62 -11 -35 -18 -67 -15 -72 8 -13
21 2 34 41 32 99 51 142 65 142 25 0 27 -27 6 -97 -12 -38 -24 -88 -27 -113
l-7 -45 19 30 c55 84 141 129 174 89 11 -14 16 -6 40 56 32 83 44 100 72 100
17 0 19 -4 13 -41z m84 -32 c0 -17 -20 -37 -37 -37 -17 0 -17 37 0 43 22 10
37 7 37 -6z"/>
<path d="M1201 593 c-19 -69 -11 -80 28 -39 19 20 20 27 10 50 -17 36 -26 33
-38 -11z"/>
<path d="M1380 495 c-7 -8 -8 -15 -2 -15 5 0 15 7 22 15 7 8 8 15 2 15 -5 0
-15 -7 -22 -15z"/>
<path d="M1880 495 c-8 -9 -8 -15 -2 -15 12 0 26 19 19 26 -2 2 -10 -2 -17
-11z"/>
<path d="M2250 495 c-7 -8 -8 -15 -2 -15 5 0 15 7 22 15 7 8 8 15 2 15 -5 0
-15 -7 -22 -15z"/>
</g>
</svg>
