<?xml version="1.0" standalone="no"?>
<!DOCTYPE svg PUBLIC "-//W3C//DTD SVG 20010904//EN"
 "http://www.w3.org/TR/2001/REC-SVG-20010904/DTD/svg10.dtd">
<svg version="1.0" xmlns="http://www.w3.org/2000/svg"
 width="233.000000pt" height="233.000000pt" viewBox="0 0 233.000000 233.000000"
 preserveAspectRatio="xMidYMid meet">

<g transform="translate(0.000000,233.000000) scale(0.100000,-0.100000)"
fill="#000000" stroke="none">
<path d="M158 2320 c-52 -16 -98 -52 -126 -98 l-27 -47 0 -1010 0 -1010 24
-42 c29 -50 84 -91 138 -104 21 -5 480 -9 1021 -9 l982 0 46 29 c57 35 101 98
109 154 3 23 5 481 3 1017 l-3 975 -24 42 c-27 47 -80 88 -132 103 -42 12
-1971 12 -2011 0z m848 -1784 c54 -54 44 -91 -34 -130 -26 -14 -32 -22 -30
-44 2 -18 -2 -27 -14 -30 -14 -3 -18 4 -19 30 -1 18 0 38 1 43 14 69 18 120
10 130 -12 15 7 35 33 35 10 0 34 -15 53 -34z m649 -13 c-4 -21 -18 -56 -31
-79 -13 -22 -21 -44 -17 -47 13 -14 43 -6 53 14 15 26 43 21 50 -10 l6 -25 41
37 c60 54 105 48 100 -14 -2 -31 -6 -35 -45 -43 -36 -8 -45 -6 -56 9 -9 13
-15 15 -20 7 -10 -16 -53 -15 -59 1 -3 10 -9 10 -26 0 -11 -7 -32 -13 -45 -13
-13 0 -26 6 -29 13 -3 9 -7 9 -18 0 -8 -6 -31 -14 -52 -18 -30 -6 -41 -4 -51
10 -11 16 -14 13 -25 -29 -10 -42 -14 -46 -41 -46 -28 0 -30 2 -30 42 0 39 -1
40 -18 25 -27 -24 -42 -21 -42 9 l0 26 -34 -21 c-30 -19 -66 -28 -66 -17 0 3
4 16 10 30 12 32 7 32 -34 1 -17 -13 -50 -27 -71 -30 -34 -6 -42 -3 -53 15
-12 20 -11 25 14 51 39 40 94 38 94 -5 1 -20 1 -20 15 -2 8 10 16 23 18 29 2
6 14 7 30 3 20 -5 27 -13 27 -31 0 -33 14 -32 39 4 26 36 26 37 0 44 -27 7
-15 27 16 27 12 0 25 7 29 15 3 8 12 15 20 15 17 0 16 -30 -2 -73 -14 -34 -15
-57 -3 -57 5 0 20 35 33 77 16 53 29 79 41 81 23 5 22 -33 -3 -105 -20 -58
-29 -134 -10 -86 12 29 81 92 102 93 28 0 48 -11 49 -29 0 -9 8 9 18 39 25 78
39 100 62 100 19 0 20 -4 14 -37z m65 -33 c-12 -22 -40 -27 -40 -7 0 19 10 27
32 27 16 0 17 -3 8 -20z"/>
<path d="M960 471 c-6 -24 -10 -45 -8 -47 7 -7 48 27 48 40 0 7 -6 21 -14 31
-13 18 -15 17 -26 -24z"/>
<path d="M1100 395 c-7 -8 -8 -15 -2 -15 5 0 15 7 22 15 7 8 8 15 2 15 -5 0
-15 -7 -22 -15z"/>
<path d="M1500 395 c-7 -8 -8 -15 -2 -15 5 0 15 7 22 15 7 8 8 15 2 15 -5 0
-15 -7 -22 -15z"/>
<path d="M1800 395 c-7 -8 -8 -15 -2 -15 5 0 15 7 22 15 7 8 8 15 2 15 -5 0
-15 -7 -22 -15z"/>
</g>
</svg>
